<svg id="Layer_1" data-name="Layer 1" xmlns="http://www.w3.org/2000/svg" viewBox="0 0 244.18 284.54"><defs><style>.cls-1{fill:#bf9e80;}.cls-2{fill:#77323f;}.cls-3{fill:#565656;}</style></defs><title>logo</title><path class="cls-1" d="M335.37,318.26c4.1,6.92,3.8,10.19,2.67,11.88s-2.94,1.69-10.62,3.55c-10.18,2.47-11.25,3.46-11.69,4.52-1.35,3.23,3.66,6.18,2.19,10.38-1.06,3-3.73,2.57-5.25,5.53-2.92,5.72,3.46,14.17,2.12,15-.92.58-3.85-3.55-5.33-2.84-1.64.81.71,6.6-1.09,7.82-2.56,1.74-10.61-7.94-12.82-6.49-2.83,1.84,6.64,19.81,3.46,21.91-1.77,1.16-5.62-3.87-8.76-2.51-4,1.71-2.57,11.84-4.4,12.08s-4-10.1-6.15-9.9-2.33,10-4.12,10-2.36-8.92-5.5-9.35c-2.76-.38-5.54,6.17-6.79,5.63s1.25-7.37-.59-8.42c-1.57-.9-4.89,3.37-6.11,2.6-1.83-1.16,3.16-12,2.35-12.37s-4.34,7.22-6,6.7c-2-.62.76-12-2.06-13.11-1.56-.6-3.44,2.42-4.71,1.81-2.42-1.16,2.21-13.25.07-14.37-2.64-1.38-13,15.38-17.3,13.47-1.71-.77-1.48-4.08-3-4.27-2.18-.27-4.23,6.24-5.77,5.86-1.09-.27-.26-3.52-2-4.72-2.33-1.63-6.31,2.53-8.78,1.24-2.7-1.38-1.76-8.15-1.56-9.49.26-1.81,4-25.32,15.92-37.67a23.52,23.52,0,0,1,12.08-7c4.94-1,18-1.85,20-6.31a6.93,6.93,0,0,1,2.21-3.13c1.9-1.42,3.31-.64,4.71-1.81,1.78-1.48.6-3.63,1.87-6.23,1.57-3.18,5.47-4.27,7.62-4.91,4.88-1.43,7,.21,8.74-1.61s.39-3.86,1.42-7.86a18.62,18.62,0,0,1,5-8.06c4.87-4.55,14.77-4.34,24.25.61a44.88,44.88,0,0,1,18.89-3.5c2.15,3,4.32,6.08,6.47,9.11a17.1,17.1,0,0,0-8.52,3.1c-1.61,1.19-1.67,1.75-3.6,3.1-3.5,2.45-7,3.16-6.86,3.58s2.9-.59,4.06.73c.84,1,.11,2.26.88,2.91.92.77,2.85-.58,4-.77a88.2,88.2,0,0,1,10.32-1.17c-.13.4-.27.81-.4,1.25a49.17,49.17,0,0,0-1.46,23.51ZM302.92,288.7c.24-4-5.13-7.76-9.73-7-2.82.49-6,2.79-6.2,5.88-.25,3.81,4.12,7.12,8.18,7.1C298.85,294.69,302.73,291.94,302.92,288.7Z" transform="translate(-202.06 -258.31)"/><path class="cls-2" d="M337.23,293.5l-.4,1.25C337,294.31,337.1,293.9,337.23,293.5Z" transform="translate(-202.06 -258.31)"/><path class="cls-2" d="M337,282c-2.15-3-4.32-6.07-6.47-9.11A46.14,46.14,0,0,1,337,282Z" transform="translate(-202.06 -258.31)"/><path class="cls-2" d="M334.77,306.16a52.86,52.86,0,0,0,.6,12.1,49.17,49.17,0,0,1,1.46-23.51A52.27,52.27,0,0,0,334.77,306.16Z" transform="translate(-202.06 -258.31)"/><path class="cls-2" d="M325.55,268.29a43.63,43.63,0,0,1,4.95,4.62,44.88,44.88,0,0,0-18.89,3.5c-9.48-5-19.38-5.16-24.25-.61a18.62,18.62,0,0,0-5,8.06c-1,4,.26,6.13-1.42,7.86s-3.86.18-8.74,1.61c-2.15.64-6.05,1.73-7.62,4.91-1.27,2.6-.09,4.75-1.87,6.23-1.4,1.17-2.81.39-4.71,1.81a6.93,6.93,0,0,0-2.21,3.13c-2,4.46-15.06,5.28-20,6.31a23.52,23.52,0,0,0-12.08,7l-.64-.63a82.23,82.23,0,0,1,10.42-9.26c13.2-33.19,38.08-54.68,60.72-54.56A54.4,54.4,0,0,1,325.55,268.29Z" transform="translate(-202.06 -258.31)"/><path class="cls-3" d="M322.05,292.53c-1.16-1.32-4-.35-4.06-.73s3.36-1.13,6.86-3.58c1.93-1.35,2-1.91,3.6-3.1A17.1,17.1,0,0,1,337,282a38.17,38.17,0,0,1,19.33,3,36.72,36.72,0,0,1-9.75,6,37.46,37.46,0,0,1-9.32,2.49,88.2,88.2,0,0,0-10.32,1.17c-1.13.19-3.06,1.54-4,.77C322.16,294.79,322.89,293.48,322.05,292.53Z" transform="translate(-202.06 -258.31)"/><path class="cls-3" d="M293.19,281.73c4.6-.79,10,3,9.73,7-.19,3.24-4.07,6-7.75,6-4.06,0-8.43-3.29-8.18-7.1C287.2,284.52,290.37,282.22,293.19,281.73Z" transform="translate(-202.06 -258.31)"/><path class="cls-3" d="M287,501.26l.46,2.74c-24,4.13-31.9,2.71-34.4.39a8.72,8.72,0,0,0-4.87-2.56,9.3,9.3,0,0,0-6.26,1.85,8.93,8.93,0,0,1,3-3.87c1.54-1.1,3.7-1.79,8.19-1.32,5.13.54,6.5,1.89,11,3s8.71.89,16.92.37C283.58,501.71,285.51,501.5,287,501.26Z" transform="translate(-202.06 -258.31)"/><path class="cls-3" d="M279.13,492.93c2.29.68,5.34,2.29,8.4,6.47a35.89,35.89,0,0,0-12.41-3.22c-3.75-.25-4.55.3-8.6.06-7.21-.43-8.62-2.45-13.95-2.9-7.17-.62-6.91,2.85-15.06,3.18-8.69.35-11.58-3.49-19.53-1.92a24,24,0,0,0-7.59,2.94,13,13,0,0,1,5.52-7.28c5.5-3.09,10.5,1.23,20.5.31a37,37,0,0,0,12.51-3.71,51.54,51.54,0,0,0,21.36-18.39c2.45.95,4.53,1.65,6.13,2.16q-6.71,8.75-13.44,17.48a22.25,22.25,0,0,0,7.51,3.59C274.28,492.69,276.14,492,279.13,492.93Z" transform="translate(-202.06 -258.31)"/><path class="cls-3" d="M270.28,507.61c2.38-2.39,6.47-.27,12.67-1.77a20.89,20.89,0,0,0,5-1.93l-.52.09-.46-2.74.74-.13a10.17,10.17,0,0,0,3.52-1.15,29,29,0,0,1,4.88-2.57,23.79,23.79,0,0,1,4.69-1.29Q311.45,484.57,322.1,473h0c3.24-.57,6.3-1.26,9.15-2l.08.26-27,32.11a35,35,0,0,0,6.25,4.77c5.21,3.1,8.35,3.09,10.47,6,1,1.35,1.94,3.64,1.47,7.6a47.43,47.43,0,0,0-7.73-6.57,48.41,48.41,0,0,0-18.34-7.49,21.68,21.68,0,0,1-9.22,2.21c-5.19,0-7.94-2.08-12.65-1.05a14.73,14.73,0,0,0-5.65,2.65A5.34,5.34,0,0,1,270.28,507.61Z" transform="translate(-202.06 -258.31)"/><path class="cls-2" d="M207,347.39a77,77,0,0,1,16.14-25.26l.64.63c-11.94,12.35-15.66,35.86-15.92,37.67-.2,1.34-1.14,8.11,1.56,9.49,2.47,1.29,6.45-2.87,8.78-1.24,1.72,1.2.89,4.45,2,4.72,1.54.38,3.59-6.13,5.77-5.86,1.55.19,1.32,3.5,3,4.27,4.28,1.91,14.66-14.85,17.3-13.47,2.14,1.12-2.49,13.21-.07,14.37,1.27.61,3.15-2.41,4.71-1.81C253.71,372,251,383.39,253,384c1.65.52,5.31-7,6-6.7s-4.18,11.21-2.35,12.37c1.22.77,4.54-3.5,6.11-2.6,1.84,1.05-.68,7.87.59,8.42s4-6,6.79-5.63c3.14.43,3.79,9.42,5.5,9.35s2.05-9.85,4.12-10,4.3,10.13,6.15,9.9.42-10.37,4.4-12.08c3.14-1.36,7,3.67,8.76,2.51,3.18-2.1-6.29-20.07-3.46-21.91,2.21-1.45,10.26,8.23,12.82,6.49,1.8-1.22-.55-7,1.09-7.82,1.48-.71,4.41,3.42,5.33,2.84,1.34-.82-5-9.27-2.12-15,1.52-3,4.19-2.53,5.25-5.53,1.47-4.2-3.54-7.15-2.19-10.38.44-1.06,1.51-2,11.69-4.52,7.68-1.86,9.52-1.89,10.62-3.55s1.43-5-2.67-11.88a184.88,184.88,0,0,1,23,31.59,181.88,181.88,0,0,1,11.43,23.52,89,89,0,0,1,20.56,41,41.82,41.82,0,0,1,8,10.57,43.3,43.3,0,0,1,4.77,24c6,14.28,5.9,18.51,4.41,19.52-2.69,1.8-12.92-4.86-20.05-15.47A45.79,45.79,0,0,1,383,444.5c-2.92-7.25-3.67-15-5.19-14.94-1.07.06-1.71,3.87-2.11,7.41q5.49,8.82,10.79,16.66h0c10.94,16.25,21.08,29.4,29.36,39.5,14.29,17.41,33.46,38.45,29.93,42.62-1.28,1.51-5.88,1.23-8.9.21-4.25-1.43-6.69-4.78-8.36-3.85-1.22.68-.74,2.94-1.88,3.32-1,.32-2.27-1-3.31-2.23-2.14,8.26-4.73,9.43-6,9.61-6.23.91-13.39-18-14.54-21.07a210.59,210.59,0,0,0-47.5-60.48A104.82,104.82,0,0,1,331.25,471c-2.85.77-5.91,1.46-9.15,2h0a100.54,100.54,0,0,1-42.49-1.5c-.54-.13-1.64-.42-3.2-.9s-3.68-1.21-6.13-2.16c-14.33-5.54-41.09-19.45-56.43-49.9C209.44,409.82,194.39,380,207,347.39Z" transform="translate(-202.06 -258.31)"/></svg>